HIERARCHY
ROOT joint_Root
{
	OFFSET 0.0 0.0 0.0
	CHANNELS 6 Xposition Yposition Zposition Zrotation Xrotation Yrotation 
	JOINT Hips
	{
		OFFSET -0.726466 93.3139 -2.00062
		CHANNELS 6 Xposition Yposition Zposition Zrotation Xrotation Yrotation 
		JOINT Spine
		{
			OFFSET 15.7357 0.0 0.0
			CHANNELS 6 Xposition Yposition Zposition Zrotation Xrotation Yrotation 
			JOINT Chest
			{
				OFFSET 8.98455 -0.406207 0.0
				CHANNELS 6 Xposition Yposition Zposition Zrotation Xrotation Yrotation 
				JOINT Neck
				{
					OFFSET 16.3773 0.0 0.0
					CHANNELS 6 Xposition Yposition Zposition Zrotation Xrotation Yrotation 
					JOINT Head
					{
						OFFSET 6.45672 0.0 0.0
						CHANNELS 6 Xposition Yposition Zposition Zrotation Xrotation Yrotation 
						End Site
						{
							OFFSET 0.0 0.0 0.0
						}
					}
				}
				JOINT Shoulder_L
				{
					OFFSET 12.9942 -0.242716 4.98039
					CHANNELS 6 Xposition Yposition Zposition Zrotation Xrotation Yrotation 
					JOINT UpperArm_L
					{
						OFFSET 5.34809 0.0 0.0
						CHANNELS 6 Xposition Yposition Zposition Zrotation Xrotation Yrotation 
						JOINT LowerArm_L
						{
							OFFSET 24.3286 1.87007e-05 0.0
							CHANNELS 6 Xposition Yposition Zposition Zrotation Xrotation Yrotation 
							JOINT Hand_L
							{
								OFFSET 22.2916 0.0 0.0
								CHANNELS 6 Xposition Yposition Zposition Zrotation Xrotation Yrotation 
								End Site
								{
									OFFSET 0.0 0.0 0.0
								}
							}
						}
					}
				}
				JOINT Shoulder_R
				{
					OFFSET 12.9945 -0.242716 -4.98039
					CHANNELS 6 Xposition Yposition Zposition Zrotation Xrotation Yrotation 
					JOINT UpperArm_R
					{
						OFFSET -5.34813 0.0 0.0
						CHANNELS 6 Xposition Yposition Zposition Zrotation Xrotation Yrotation 
						JOINT LowerArm_R
						{
							OFFSET -24.3289 0.000322201 0.0
							CHANNELS 6 Xposition Yposition Zposition Zrotation Xrotation Yrotation 
							JOINT Hand_R
							{
								OFFSET -22.2915 -0.000108084 0.0
								CHANNELS 6 Xposition Yposition Zposition Zrotation Xrotation Yrotation 
								End Site
								{
									OFFSET 0.0 0.0 0.0
								}
							}
						}
					}
				}
			}
		}
		JOINT UpperLeg_L
		{
			OFFSET -2.19248 -6.46944 0.0
			CHANNELS 6 Xposition Yposition Zposition Zrotation Xrotation Yrotation 
			JOINT LowerLeg_L
			{
				OFFSET 39.0811 0.0 -1.23785e-05
				CHANNELS 6 Xposition Yposition Zposition Zrotation Xrotation Yrotation 
				JOINT Foot_L
				{
					OFFSET 40.9854 0.0 -1.26872e-05
					CHANNELS 6 Xposition Yposition Zposition Zrotation Xrotation Yrotation 
					JOINT Toes_L
					{
						OFFSET 11.7543 0.0 0.0
						CHANNELS 6 Xposition Yposition Zposition Zrotation Xrotation Yrotation 
						End Site
						{
							OFFSET 0.0 0.0 0.0
						}
					}
				}
			}
		}
		JOINT UpperLeg_R
		{
			OFFSET -2.19251 6.46944 0.0
			CHANNELS 6 Xposition Yposition Zposition Zrotation Xrotation Yrotation 
			JOINT LowerLeg_R
			{
				OFFSET -39.0811 -0.00228153 -0.0401928
				CHANNELS 6 Xposition Yposition Zposition Zrotation Xrotation Yrotation 
				JOINT Foot_R
				{
					OFFSET -40.9854 0.0 0.0
					CHANNELS 6 Xposition Yposition Zposition Zrotation Xrotation Yrotation 
					JOINT Toes_R
					{
						OFFSET -11.7543 0.0 0.0
						CHANNELS 6 Xposition Yposition Zposition Zrotation Xrotation Yrotation 
						End Site
						{
							OFFSET 0.0 0.0 0.0
						}
					}
				}
			}
		}
	}
}
MOTION
Frames:	7
Frame Time:	0.0333333
0.000000 0.000000 0.000000 0.000000 0.000000 -0.000000 2.923920 91.639700 -495.604000 86.591200 -1.866230 -0.762889 15.735700 0.000005 -0.000001 82.154500 82.983500 -81.477500 8.984550 -0.406207 -0.000000 6.149980 -1.919760 1.455680 16.377300 -0.000001 -0.000001 1.066050 -0.184495 -1.339720 6.456720 -0.000001 -0.000000 2.008130 0.565033 -1.608410 12.994200 -0.242716 4.980390 -89.234700 -2.219580 -70.971200 5.348090 -0.000007 -0.000001 -62.934600 33.492700 -26.443900 24.328600 0.000019 0.000005 -6.179100 -3.350040 -61.633600 22.291600 -0.000001 0.000005 15.938900 5.618180 -12.507200 12.994500 -0.242716 -4.980390 88.723500 4.117660 -72.758900 -5.348130 -0.000001 -0.000004 -73.036000 18.937300 -1.667270 -24.328900 0.000322 -0.000009 1.638390 15.087000 -6.275740 -22.291500 -0.000108 -0.000004 8.987240 5.287070 0.426398 -2.192480 -6.469440 -0.000000 -176.455000 0.378263 -2.885960 39.081100 -0.000007 -0.000012 -0.167198 0.385317 23.457400 40.985400 -0.000006 -0.000013 1.380160 -3.506420 -71.760500 11.754300 -0.000000 0.000003 0.000114 0.001942 -16.498600 -2.192510 6.469440 -0.000001 -179.597000 9.394460 152.984000 -39.081100 -0.002282 -0.040193 0.104372 -0.065439 57.100800 -40.985400 0.000008 0.000006 0.774902 -5.856730 -55.992700 -11.754300 -0.000006 -0.000006 -0.022593 -0.181251 -23.983500
0.000000 0.000000 0.000000 0.000000 0.000000 -0.000000 2.782360 91.644700 -493.340000 85.878100 -1.457920 -0.902360 15.735700 0.000005 -0.000001 79.356100 82.941300 -78.318000 8.984550 -0.406207 -0.000000 6.138010 -2.615110 2.214270 16.377300 -0.000001 -0.000001 1.031540 -0.284998 -1.330070 6.456720 -0.000001 -0.000000 1.533870 1.143840 -1.849440 12.994200 -0.242716 4.980390 -89.183200 -2.419990 -71.343200 5.348090 -0.000007 -0.000001 -59.538700 32.208000 -32.275500 24.328600 0.000019 0.000005 -6.825600 -3.149720 -65.346800 22.291600 -0.000001 0.000005 15.793800 5.619110 -12.559100 12.994500 -0.242716 -4.980390 88.752500 3.838590 -71.981400 -5.348130 -0.000001 -0.000004 -71.174100 15.978900 1.072360 -24.328900 0.000322 -0.000009 1.224830 14.768300 -4.798350 -22.291500 -0.000108 -0.000004 10.511800 5.270130 0.893375 -2.192480 -6.469440 -0.000000 -175.693000 0.260808 -0.210314 39.081100 -0.000007 -0.000012 -0.130243 0.338199 21.062200 40.985400 -0.000006 -0.000013 2.210340 -3.218110 -71.974600 11.754300 -0.000000 0.000003 -0.008577 -0.010270 -16.572900 -2.192510 6.469440 -0.000001 -177.548000 10.137100 151.248000 -39.081100 -0.002282 -0.040193 0.065884 -0.055217 48.600100 -40.985400 0.000008 0.000006 0.090796 -5.550890 -56.197400 -11.754300 -0.000006 -0.000006 -0.021292 -0.174344 -23.698700
0.000000 0.000000 0.000000 0.000000 0.000000 -0.000000 2.625740 91.362800 -491.010000 85.507500 -1.011830 -1.210900 15.735700 0.000005 -0.000001 76.448500 82.934200 -75.139800 8.984550 -0.406207 -0.000000 6.019390 -3.322420 2.789880 16.377300 -0.000001 -0.000001 0.939328 -0.335250 -1.272660 6.456720 -0.000001 -0.000000 1.208990 1.784910 -1.937300 12.994200 -0.242716 4.980390 -89.185700 -2.449260 -71.603100 5.348090 -0.000007 -0.000001 -56.147100 30.631000 -37.745100 24.328600 0.000019 0.000005 -5.240520 -2.267000 -66.672100 22.291600 -0.000001 0.000005 16.366800 5.621190 -12.700200 12.994500 -0.242716 -4.980390 88.850400 3.429270 -71.453700 -5.348130 -0.000001 -0.000004 -69.342000 14.096200 3.424490 -24.328900 0.000322 -0.000009 1.093130 14.568400 -4.342090 -22.291500 -0.000108 -0.000004 12.291700 5.262320 1.102780 -2.192480 -6.469440 -0.000000 -175.119000 -0.302663 1.765020 39.081100 -0.000007 -0.000012 -0.101964 0.282891 19.821100 40.985400 -0.000006 -0.000013 2.781220 -2.477760 -73.071900 11.754300 -0.000000 0.000003 -0.322695 -0.391873 -16.329200 -2.192510 6.469440 -0.000001 -175.857000 10.978400 150.163000 -39.081100 -0.002282 -0.040193 0.036935 -0.042122 38.623000 -40.985400 0.000008 0.000006 -0.620301 -4.013170 -54.925800 -11.754300 -0.000006 -0.000006 -0.021164 -0.173655 -23.670200
0.000000 0.000000 0.000000 0.000000 0.000000 -0.000000 2.425760 90.823700 -488.477000 85.429600 -0.500684 -1.496620 15.735700 0.000005 -0.000001 73.767700 82.929600 -72.262700 8.984550 -0.406207 -0.000000 5.876000 -3.967480 3.211310 16.377300 -0.000001 -0.000001 0.765826 -0.372205 -1.180150 6.456720 -0.000001 -0.000000 0.972179 2.308260 -1.934950 12.994200 -0.242716 4.980390 -89.135100 -2.658150 -71.968200 5.348090 -0.000007 -0.000001 -53.647000 29.039100 -42.112900 24.328600 0.000019 0.000005 -3.349350 -1.483960 -66.126900 22.291600 -0.000001 0.000005 17.106700 5.620840 -12.679000 12.994500 -0.242716 -4.980390 89.000100 2.895680 -70.939800 -5.348130 -0.000001 -0.000004 -67.869500 13.019300 5.336780 -24.328900 0.000322 -0.000009 1.140270 14.530000 -4.540120 -22.291500 -0.000108 -0.000004 13.749000 5.254140 1.321660 -2.192480 -6.469440 -0.000000 -174.551000 -1.646410 3.590420 39.081100 -0.000007 -0.000012 -0.072583 0.207506 19.279100 40.985400 -0.000006 -0.000013 3.414960 -0.841492 -74.774000 11.754300 -0.000000 0.000003 -0.482348 -0.591420 -16.203500 -2.192510 6.469440 -0.000001 -174.671000 11.445600 149.654000 -39.081100 -0.002282 -0.040193 0.017315 -0.025644 28.650300 -40.985400 0.000008 0.000006 -1.777530 -1.278030 -52.877100 -11.754300 -0.000006 -0.000006 -0.021361 -0.174714 -23.713900
0.000000 0.000000 0.000000 0.000000 0.000000 -0.000000 2.077370 90.122400 -485.502000 85.509300 0.555456 -1.316340 15.735700 0.000005 -0.000001 70.369300 82.723400 -68.672800 8.984550 -0.406207 -0.000000 6.033430 -4.901850 3.649220 16.377300 -0.000001 -0.000001 0.550371 -0.387427 -1.157910 6.456720 -0.000001 -0.000000 0.798362 2.801580 -1.927390 12.994200 -0.242716 4.980390 -89.057400 -2.997600 -72.534500 5.348090 -0.000007 -0.000001 -52.190800 27.548300 -44.890000 24.328600 0.000019 0.000005 -2.100390 -1.002590 -64.488700 22.291600 -0.000001 0.000005 17.219300 5.615080 -12.287700 12.994500 -0.242716 -4.980390 89.155700 2.395270 -70.576000 -5.348130 -0.000001 -0.000004 -66.832100 12.014200 6.640630 -24.328900 0.000322 -0.000009 1.223390 14.542600 -4.865230 -22.291500 -0.000108 -0.000004 15.007200 5.243230 1.609980 -2.192480 -6.469440 -0.000000 -173.965000 -2.412540 6.051820 39.081100 -0.000007 -0.000012 -0.001241 0.003633 18.860300 40.985400 -0.000006 -0.000013 4.840680 0.651555 -76.587700 11.754300 -0.000000 0.000003 -0.565082 -0.695511 -16.462500 -2.192510 6.469440 -0.000001 -173.790000 12.319400 149.476000 -39.081100 -0.002282 -0.040193 0.006967 -0.009036 21.991800 -40.985400 0.000008 0.000006 -3.021350 0.275695 -52.203700 -11.754300 -0.000006 -0.000006 -0.021475 -0.175328 -23.739200
0.000000 0.000000 0.000000 0.000000 0.000000 -0.000000 1.501920 89.317500 -481.899000 85.524600 1.914500 -0.536836 15.735700 0.000005 -0.000001 66.959500 82.310900 -65.030400 8.984550 -0.406207 -0.000000 6.517630 -6.021680 4.199790 16.377300 -0.000001 -0.000001 0.470968 -0.260323 -1.232220 6.456720 -0.000001 -0.000000 0.827537 3.382940 -2.119790 12.994200 -0.242716 4.980390 -89.078700 -3.060310 -73.236700 5.348090 -0.000007 -0.000001 -51.394900 26.299700 -45.927700 24.328600 0.000019 0.000005 -1.283070 -0.671063 -62.387800 22.291600 -0.000001 0.000005 16.773400 5.603620 -11.559000 12.994500 -0.242716 -4.980390 89.198600 2.264410 -70.504600 -5.348130 -0.000001 -0.000004 -65.971900 10.820200 7.263740 -24.328900 0.000322 -0.000009 1.187440 14.162400 -4.846410 -22.291500 -0.000108 -0.000004 16.070400 5.236180 1.794970 -2.192480 -6.469440 -0.000000 -172.908000 -2.148930 8.512840 39.081100 -0.000007 -0.000012 -0.006536 0.018014 19.941900 40.985400 -0.000006 -0.000013 4.456980 2.262230 -77.200700 11.754300 -0.000000 0.000003 -1.422050 -1.727110 -18.266000 -2.192510 6.469440 -0.000001 -172.840000 13.733500 149.140000 -39.081100 -0.002282 -0.040193 0.003277 0.000109 21.252000 -40.985400 0.000008 0.000006 -2.910980 -0.569198 -53.004400 -11.754300 -0.000006 -0.000006 -0.022260 -0.179501 -23.911400
0.000000 0.000000 0.000000 0.000000 0.000000 -0.000000 0.728327 88.565300 -477.746000 85.184600 3.346750 -0.186509 15.735700 0.000005 -0.000001 63.337600 82.265500 -61.045800 8.984550 -0.406207 -0.000000 6.237320 -6.952770 4.962320 16.377300 -0.000001 -0.000001 0.800177 -0.230642 -1.475600 6.456720 -0.000001 -0.000000 1.532430 3.855460 -2.350120 12.994200 -0.242716 4.980390 -89.215500 -2.682050 -73.690100 5.348090 -0.000007 -0.000001 -50.812600 26.322100 -45.490800 24.328600 0.000019 0.000005 -0.316988 -0.184180 -59.764600 22.291600 -0.000001 0.000005 16.324600 5.588330 -10.668100 12.994500 -0.242716 -4.980390 89.012500 2.759130 -70.300300 -5.348130 -0.000001 -0.000004 -65.033900 10.349300 7.493090 -24.328900 0.000322 -0.000009 0.960623 13.388800 -4.145750 -22.291500 -0.000108 -0.000004 16.759300 5.232470 1.891150 -2.192480 -6.469440 -0.000000 -171.441000 -1.227160 10.406400 39.081100 -0.000007 -0.000012 -0.011127 0.027901 21.742400 40.985400 -0.000006 -0.000013 3.593640 3.457750 -77.320200 11.754300 -0.000000 0.000003 -0.005912 -0.070047 -19.427500 -2.192510 6.469440 -0.000001 -171.759000 14.022800 147.847000 -39.081100 -0.002282 -0.040193 0.017130 -0.028225 26.088000 -40.985400 0.000008 0.000006 2.380630 -2.528660 -52.899400 -11.754300 -0.000006 -0.000006 -0.024396 -0.190525 -24.366600
